<svg id="Layer_1" data-name="Layer 1" xmlns="http://www.w3.org/2000/svg" viewBox="0 0 200 139.43"><defs><style>.cls-1{fill:none;stroke:#27571b;stroke-miterlimit:10;stroke-width:6px;}.cls-2{fill:#27571b;}</style></defs><title>carrito2</title><path class="cls-1" d="M8.65,8.07C52.08,7.62,95.42,8,138.86,7.85c4.38-.56,7.9,4.36,6.25,8.5-5.93,22.7-11.52,45.4-17.55,68.11-.66,3.46-4.17,4.81-7.24,4.59H28.17c-3.18.22-6.58-1.68-7.12-5.15C15.34,61.64,10,39.16,4.37,16.9,3.06,13.44,4.59,8.41,8.65,8.07Z"/><path class="cls-2" d="M46.49,139.15c-7.13,1.57-14.8-3.58-16.45-10.85-2-7,2.63-15,9.44-17.22,7.56-3,16.78,2.46,18.31,10.51C59.77,129.31,54.17,137.81,46.49,139.15Z"/><path class="cls-2" d="M114.72,139.38c-8.23.11-15.57-8.28-14-16.67a14.43,14.43,0,0,1,11.08-12.08c8.23-2.24,17,4.92,17.22,13.42C129.53,132.1,122.62,139.6,114.72,139.38Z"/><path class="cls-2" d="M195.68,11.76c-10,1.12-20.18-.22-30.17.67-8.12,29.42-15.91,58.83-23.81,88.36a6.77,6.77,0,0,1-7.34,5.59c-38.61-.11-77.12.11-115.73-.11-7.46.22-7.78-12.08-.22-12.19,17.66-.16,35.31-.12,53-.08,0,0,.73,0,59.59-.15h0c.94-8.17,18.67-68.59,24.24-89.47A5.56,5.56,0,0,1,160.8.13c11.29-.11,22.59-.23,33.89,0C200.5.69,201.27,10.08,195.68,11.76Z"/></svg>