<?xml version="1.0" encoding="UTF-8"?>
<svg xmlns="http://www.w3.org/2000/svg" xmlns:xlink="http://www.w3.org/1999/xlink" width="150pt" height="149.999998pt" viewBox="0 0 150 149.999998" version="1.2">
<defs>
<clipPath id="clip1">
  <path d="M 2.078125 2.078125 L 149.828125 2.078125 L 149.828125 149.828125 L 2.078125 149.828125 Z M 2.078125 2.078125 "/>
</clipPath>
</defs>
<g id="surface1">
<g clip-path="url(#clip1)" clip-rule="nonzero">
<path style=" stroke:none;fill-rule:nonzero;fill:rgb(15.289307%,34.118652%,10.5896%);fill-opacity:1;" d="M 75.886719 2.035156 C 35.164062 2.035156 2.035156 35.164062 2.035156 75.890625 C 2.035156 116.613281 35.164062 149.746094 75.886719 149.746094 C 116.613281 149.746094 149.742188 116.613281 149.742188 75.890625 C 149.742188 35.164062 116.613281 2.035156 75.886719 2.035156 Z M 75.886719 146.011719 C 37.222656 146.011719 5.765625 114.554688 5.765625 75.890625 C 5.765625 37.222656 37.222656 5.769531 75.886719 5.769531 C 114.554688 5.769531 146.007812 37.222656 146.007812 75.890625 C 146.007812 114.554688 114.554688 146.011719 75.886719 146.011719 Z M 75.886719 146.011719 "/>
</g>
<path style=" stroke:none;fill-rule:nonzero;fill:rgb(15.289307%,34.118652%,10.5896%);fill-opacity:1;" d="M 50.347656 103.023438 C 50.347656 115.289062 61.695312 125.273438 75.640625 125.273438 C 89.589844 125.273438 100.933594 115.289062 100.933594 103.023438 L 100.933594 101.15625 L 50.347656 101.15625 Z M 97.089844 104.890625 C 95.996094 114.226562 86.792969 121.539062 75.640625 121.539062 C 64.488281 121.539062 55.285156 114.226562 54.191406 104.890625 Z M 97.089844 104.890625 "/>
<path style=" stroke:none;fill-rule:nonzero;fill:rgb(15.289307%,34.118652%,10.5896%);fill-opacity:1;" d="M 56.03125 82.589844 C 56.03125 72.734375 48.917969 64.71875 40.171875 64.71875 C 31.425781 64.71875 24.3125 72.734375 24.3125 82.589844 L 28.046875 82.589844 C 28.046875 74.792969 33.484375 68.449219 40.171875 68.449219 C 46.859375 68.449219 52.296875 74.796875 52.296875 82.589844 Z M 56.03125 82.589844 "/>
<path style=" stroke:none;fill-rule:nonzero;fill:rgb(15.289307%,34.118652%,10.5896%);fill-opacity:1;" d="M 111.605469 64.714844 C 102.859375 64.714844 95.746094 72.734375 95.746094 82.589844 L 99.480469 82.589844 C 99.480469 74.792969 104.917969 68.449219 111.605469 68.449219 C 118.292969 68.449219 123.730469 74.792969 123.730469 82.589844 L 127.464844 82.589844 C 127.464844 72.734375 120.351562 64.714844 111.605469 64.714844 Z M 111.605469 64.714844 "/>
</g>
</svg>
