<?xml version="1.0" encoding="UTF-8"?>
<svg xmlns="http://www.w3.org/2000/svg" xmlns:xlink="http://www.w3.org/1999/xlink" width="150pt" height="149.999998pt" viewBox="0 0 150 149.999998" version="1.2">
<defs>
<clipPath id="clip1">
  <path d="M 1.234375 1.234375 L 148.984375 1.234375 L 148.984375 148.984375 L 1.234375 148.984375 Z M 1.234375 1.234375 "/>
</clipPath>
</defs>
<g id="surface1">
<g clip-path="url(#clip1)" clip-rule="nonzero">
<path style=" stroke:none;fill-rule:nonzero;fill:rgb(15.289307%,34.118652%,10.5896%);fill-opacity:1;" d="M 75.109375 1.234375 C 34.375 1.234375 1.234375 34.375 1.234375 75.109375 C 1.234375 115.84375 34.375 148.984375 75.109375 148.984375 C 115.84375 148.984375 148.984375 115.84375 148.984375 75.109375 C 148.984375 34.375 115.84375 1.234375 75.109375 1.234375 Z M 123.625 123.628906 C 117.328125 129.9375 109.984375 134.878906 101.8125 138.332031 C 93.359375 141.917969 84.378906 143.726562 75.109375 143.726562 C 65.839844 143.726562 56.855469 141.917969 48.402344 138.332031 C 40.230469 134.878906 32.890625 129.9375 26.585938 123.625 C 20.28125 117.320312 15.332031 109.984375 11.882812 101.8125 C 8.304688 93.355469 6.492188 84.375 6.492188 75.109375 C 6.492188 65.84375 8.304688 56.855469 11.882812 48.398438 C 15.332031 40.234375 20.28125 32.894531 26.59375 26.59375 C 32.894531 20.285156 40.234375 15.332031 48.402344 11.882812 C 65.328125 4.738281 84.894531 4.738281 101.8125 11.882812 C 109.980469 15.332031 117.320312 20.285156 123.625 26.585938 C 129.9375 32.894531 134.882812 40.234375 138.332031 48.398438 C 141.914062 56.855469 143.726562 65.84375 143.726562 75.109375 C 143.726562 84.375 141.914062 93.355469 138.332031 101.816406 C 134.882812 109.984375 129.9375 117.320312 123.625 123.628906 Z M 123.625 123.628906 "/>
</g>
<path style=" stroke:none;fill-rule:nonzero;fill:rgb(15.289307%,34.118652%,10.5896%);fill-opacity:1;" d="M 54.054688 58.574219 C 56.335938 58.574219 58.199219 56.714844 58.199219 54.433594 C 58.199219 52.152344 56.335938 50.296875 54.054688 50.296875 C 51.773438 50.296875 49.917969 52.152344 49.917969 54.433594 C 49.917969 56.714844 51.773438 58.574219 54.054688 58.574219 Z M 54.054688 58.574219 "/>
<path style=" stroke:none;fill-rule:nonzero;fill:rgb(15.289307%,34.118652%,10.5896%);fill-opacity:1;" d="M 96.160156 58.574219 C 98.441406 58.574219 100.300781 56.714844 100.300781 54.433594 C 100.300781 52.152344 98.441406 50.296875 96.160156 50.296875 C 93.878906 50.296875 92.023438 52.152344 92.023438 54.433594 C 92.023438 56.714844 93.878906 58.574219 96.160156 58.574219 Z M 96.160156 58.574219 "/>
<path style=" stroke:none;fill-rule:nonzero;fill:rgb(15.289307%,34.118652%,10.5896%);fill-opacity:1;" d="M 75.105469 90.773438 C 59.441406 90.800781 45.265625 98.019531 36.222656 110.582031 C 35.894531 111.035156 35.71875 111.558594 35.71875 112.113281 C 35.71875 113.566406 36.898438 114.746094 38.351562 114.746094 C 39.148438 114.746094 39.894531 114.386719 40.394531 113.765625 C 41.777344 111.882812 43.191406 110.265625 44.859375 108.597656 C 48.804688 104.65625 53.394531 101.558594 58.507812 99.394531 C 63.769531 97.175781 69.351562 96.039062 75.105469 96.027344 C 80.867188 96.039062 86.449219 97.175781 91.707031 99.394531 C 96.824219 101.558594 101.414062 104.65625 105.359375 108.601562 C 107.023438 110.257812 108.429688 111.878906 109.664062 113.546875 C 111.523438 115.921875 114.503906 114.363281 114.5 112.113281 C 114.5 111.558594 114.324219 111.035156 114.003906 110.585938 C 104.953125 98.019531 90.777344 90.800781 75.105469 90.773438 Z M 75.105469 90.773438 "/>
<path style=" stroke:none;fill-rule:nonzero;fill:rgb(15.289307%,34.118652%,10.5896%);fill-opacity:1;" d="M 116.847656 61.851562 C 115.148438 62.570312 105.847656 75.53125 105.847656 81.949219 C 105.847656 88.121094 110.863281 93.140625 117.035156 93.140625 C 123.207031 93.140625 128.222656 88.121094 128.222656 81.949219 C 128.222656 75.527344 118.921875 62.570312 116.847656 61.851562 Z M 119.074219 73.828125 C 121.554688 78.0625 122.367188 80.855469 122.460938 81.835938 C 122.429688 84.972656 120 87.378906 117.03125 87.378906 C 114.070312 87.378906 111.632812 84.96875 111.609375 82.003906 C 111.695312 80.875 112.496094 78.085938 114.996094 73.824219 L 117.03125 70.539062 L 118.429688 72.765625 C 118.648438 73.101562 118.863281 73.464844 119.074219 73.828125 Z M 119.074219 73.828125 "/>
</g>
</svg>
