<svg id="Capa_1" data-name="Capa 1" xmlns="http://www.w3.org/2000/svg" xmlns:xlink="http://www.w3.org/1999/xlink" viewBox="0 0 200 200"><defs><style>.cls-1,.cls-5,.cls-8{fill:none;}.cls-2{clip-path:url(#clip-path);}.cls-3{fill:#fff;}.cls-3,.cls-7{fill-rule:evenodd;}.cls-4{fill:#eb7f31;}.cls-5{stroke:#f37d27;stroke-miterlimit:22.93;stroke-width:0.84px;}.cls-6,.cls-7{fill:#39763d;}.cls-8{stroke:#39763d;stroke-miterlimit:10;stroke-width:0.08px;}</style><clipPath id="clip-path"><rect class="cls-1" x="-54.5" y="-9.24" width="309" height="218.48"/></clipPath></defs><title>Mesa de trabajo 1</title><g class="cls-2"><path class="cls-3" d="M97.23,10.72A93.69,93.69,0,1,1,3.54,104.41,93.69,93.69,0,0,1,97.23,10.72"/><path class="cls-4" d="M159,154.26c-1.22-1.82-2.75-2.1-4.52-2.1-2,0-4.74.81-4.69,3.42,0,2.28,2.31,2.74,4.57,3.18,2,.38,4.07.79,4,2.64,0,2.19-2.41,2.61-3.93,2.61a4.84,4.84,0,0,1-4.21-2.24l-.85.42a5.54,5.54,0,0,0,5.06,2.68c2.07,0,4.87-.67,4.89-3.45s-2.47-3.09-4.85-3.55c-2.08-.38-3.78-.75-3.78-2.32,0-2,2.3-2.51,3.74-2.51s2.84.23,3.74,1.68ZM141.39,153c3.55,0,5.31,2.62,5.31,5.48a5.19,5.19,0,0,1-5.31,5.5c-3.5,0-5.27-2.72-5.29-5.5S137.85,153,141.39,153Zm0-.89c-4.16,0-6.22,3-6.22,6.35s2.08,6.4,6.22,6.4,6.21-3.12,6.23-6.36S145.55,152.14,141.39,152.14Zm-14.28,1.08a5.27,5.27,0,1,1,0,10.54h-3.22V153.22Zm0-.9h-4.17v12.36h4.17a6.18,6.18,0,1,0,0-12.36Zm-15.42,8.45,3.31-7.53,3.32,7.53Zm9.38,3.91-5.54-12.36h-1L109,164.68h1l1.34-3h7.37l1.35,3ZM99.28,152.32v12.36h7.89v-.9h-6.94V152.32Zm-9.89.9H97v-.9H88.45v12.36h8.73v-.92H89.39V158.9h7.22V158H89.39Zm-3.65.79a6.44,6.44,0,0,0-4.52-1.85,6.34,6.34,0,1,0,0,12.68,6.4,6.4,0,0,0,4.66-2v-4.62h-5.2v.83H85v3.45a5.57,5.57,0,0,1-3.76,1.43,5.13,5.13,0,0,1-5.44-5.41,5.2,5.2,0,0,1,5.44-5.5,5.77,5.77,0,0,1,4,1.58Zm-22.66-1.69v12.36h1V154.47l8.33,10.21h.37V152.32h-.94v10.22l-8.3-10.22Zm-8.5.71c3.55,0,5.31,2.62,5.31,5.48a5.19,5.19,0,0,1-5.31,5.5c-3.5,0-5.27-2.72-5.28-5.5S51,153,54.58,153Zm0-.89c-4.16,0-6.22,3-6.22,6.35s2.08,6.4,6.22,6.4,6.21-3.12,6.23-6.36S58.75,152.14,54.58,152.14ZM46,162.37a5.49,5.49,0,0,1-3.86,1.57,5.45,5.45,0,0,1,0-10.9A5.44,5.44,0,0,1,46,154.61l.65-.56a6.32,6.32,0,0,0-4.5-1.85,6.31,6.31,0,1,0,0,12.62,6.36,6.36,0,0,0,4.5-1.85Z"/><path class="cls-5" d="M159,154.26c-1.22-1.82-2.75-2.1-4.52-2.1-2,0-4.74.81-4.69,3.42,0,2.28,2.31,2.74,4.57,3.18,2,.38,4.07.79,4,2.64,0,2.19-2.41,2.61-3.93,2.61a4.84,4.84,0,0,1-4.21-2.24l-.85.42a5.54,5.54,0,0,0,5.06,2.68c2.07,0,4.87-.67,4.89-3.45s-2.47-3.09-4.85-3.55c-2.08-.38-3.78-.75-3.78-2.32,0-2,2.3-2.51,3.74-2.51s2.84.23,3.74,1.68ZM141.39,153c3.55,0,5.31,2.62,5.31,5.48a5.19,5.19,0,0,1-5.31,5.5c-3.5,0-5.27-2.72-5.29-5.5S137.85,153,141.39,153Zm0-.89c-4.16,0-6.22,3-6.22,6.35s2.08,6.4,6.22,6.4,6.21-3.12,6.23-6.36S145.55,152.14,141.39,152.14Zm-14.28,1.08a5.27,5.27,0,1,1,0,10.54h-3.22V153.22Zm0-.9h-4.17v12.36h4.17a6.18,6.18,0,1,0,0-12.36Zm-15.42,8.45,3.31-7.53,3.32,7.53Zm9.38,3.91-5.54-12.36h-1L109,164.68h1l1.34-3h7.37l1.35,3ZM99.28,152.32v12.36h7.89v-.9h-6.94V152.32Zm-9.89.9H97v-.9H88.45v12.36h8.73v-.92H89.39V158.9h7.22V158H89.39Zm-3.65.79a6.44,6.44,0,0,0-4.52-1.85,6.34,6.34,0,1,0,0,12.68,6.4,6.4,0,0,0,4.66-2v-4.62h-5.2v.83H85v3.45a5.57,5.57,0,0,1-3.76,1.43,5.13,5.13,0,0,1-5.44-5.41,5.2,5.2,0,0,1,5.44-5.5,5.77,5.77,0,0,1,4,1.58Zm-22.66-1.69v12.36h1V154.47l8.33,10.21h.37V152.32h-.94v10.22l-8.3-10.22Zm-8.5.71c3.55,0,5.31,2.62,5.31,5.48a5.19,5.19,0,0,1-5.31,5.5c-3.5,0-5.27-2.72-5.28-5.5S51,153,54.58,153Zm0-.89c-4.16,0-6.22,3-6.22,6.35s2.08,6.4,6.22,6.4,6.21-3.12,6.23-6.36S58.75,152.14,54.58,152.14ZM46,162.37a5.49,5.49,0,0,1-3.86,1.57,5.45,5.45,0,0,1,0-10.9A5.44,5.44,0,0,1,46,154.61l.65-.56a6.32,6.32,0,0,0-4.5-1.85,6.31,6.31,0,1,0,0,12.62,6.36,6.36,0,0,0,4.5-1.85Z"/><path class="cls-6" d="M90.9,101.47c0,10.61,3.61,19.57,10.82,26.68a36.91,36.91,0,0,0,26.77,10.71c10.82,0,19.78-3.61,26.88-10.92s10.71-16.27,10.71-27.08a23.76,23.76,0,0,0-.31-3.92H126.64v13.91h20.6a20.35,20.35,0,0,1-18.85,12.35,19,19,0,0,1-14.62-6.28,21.86,21.86,0,0,1-5.87-15.45A21.26,21.26,0,0,1,114,86a20.25,20.25,0,0,1,15.35-6.28c8.13,0,15,4,18.64,10.91l15.86-5.87a35.28,35.28,0,0,0-13.91-15.14,39.33,39.33,0,0,0-20.59-5.56c-10.92,0-20.09,3.61-27.4,10.71s-11,16-11,26.67M82.66,81a20.86,20.86,0,0,0-9.16-12,29.63,29.63,0,0,0-16.89-4.84q-11,0-17.92,6.18c-4.53,4-6.8,9.37-6.8,16a20.73,20.73,0,0,0,2.89,10.51c1.54,2.57,5.14,5,7.31,6.59A38.35,38.35,0,0,0,47,105.7l5,1.85c1.23.31,3.09.93,5.46,1.65l1,.31c4.11,1.34,6.59,2.16,8.95,4.22a4.44,4.44,0,0,1,1.86,3.5c0,3.81-4.74,6.59-10.61,6.59-6.49,0-11.43-3.19-12.56-7.31l-16.38,3.91a22.91,22.91,0,0,0,10.09,13.29,34,34,0,0,0,18.85,5.15c7.93,0,14.42-2.06,19.47-6.28s7.51-9.79,7.51-16.79c-.41-8.86-3.91-13.9-9.88-17.1a39.68,39.68,0,0,0-10.82-4.53q-8.64-2.62-10.81-3.4c-4-1.64-6-3.6-6-5.76,0-3.4,3.7-5.87,8.65-5.87s8.65,2.47,9.58,5.66Z"/><path class="cls-7" d="M108.1,43.93c-19,6.79-18.77,22.07-16.36,25.5.89-1.92,7.74-13.73,10.57-16,0,0-7.47,13.74-8.49,17.44,21.26,1.13,14.28-27,14.28-27"/><path class="cls-7" d="M79.07,53.61S85.62,63.4,87.47,65c6.59-13.67-14.74-17.36-14.74-17.36C72.1,61.65,83.14,66.36,86,65.71,85.15,64.71,79.55,56,79.07,53.61Z"/><path class="cls-8" d="M79.07,53.61S85.62,63.4,87.47,65c6.59-13.67-14.74-17.36-14.74-17.36C72.1,61.65,83.14,66.36,86,65.71,85.15,64.71,79.55,56,79.07,53.61Z"/></g></svg>